<?xml version="1.0" encoding="UTF-8"?><svg id="Layer_2" xmlns="http://www.w3.org/2000/svg" viewBox="0 0 317.65 60"><g id="Layer_1-2"><g><path d="M18.06,13.91c-4.17,.92-5,1.77-7.97,2.54-.14,3.11-.95,6.82-.95,10.07,3.82-.99,7.21-2.12,11.31-2.19,4.59-.07,8.98,2.69,9.19,4.17-.07,1.91-3.18,3.61-5.16,3.61h-.64c-2.54,0-8.84,1.63-14.21,3.18-.07,.57,.23,3,.14,4.17-.08,1.04-.1,3.63-.25,5.55-.06,.83,.76,1.43,1.53,1.11,.2-.08,.4-.16,.61-.24,1.41-.49,12.16-2.01,13.64-2.01,2.26,0,5.11,2.86,5.32,4.28,.35,2.9-8.69,5.37-10.89,6.01-1.63,.49-8.92,1.2-10.69,1.2s-4.03-.42-5.51-2.19c-2.12-2.4-2.81-10.11-3.3-14.35-.64-5.37,.25-13.36,.53-18.31,.28-4.74,.64-5.62,.71-6.11-.14-.42-.35-1.06-.42-1.7-.35-2.62,1.34-4.03,4.03-4.03,.71,0,1.34,.14,1.98,.21,4.88-1.98,8.82-3.68,12.28-3.68,1.56,0,8.2,1.91,8.41,4.74,.07,.78-4.17,2.83-9.68,3.96Z"/><path d="M83.4,41.76c-.49,1.91-3.75,3.11-5.37,3.11-4.17,0-6.22-8.84-6.86-11.66-2.47,2.19-7.63,8.2-9.26,10.11-.92,1.06-2.33,1.27-3.53,1.27-1.7,0-4.17-.57-5.3-1.77-1.2-1.27-2.62-9.76-3.04-12.09-3.68,5.37-7.28,11.59-9.05,14.49-.64,1.06-2.4,1.27-3.25,1.27-2.12,0-3.59,.19-3.61-2.26,0-2.07,13.5-25.38,14.77-26.93,1.27-1.55,3.46-2.9,5.44-2.9,1.27,0,2.69,.71,3.18,2.26,.21,.85,.49,2.05,.71,3.46,.64,4.38,1.13,8.84,2.4,13.22,3.25-2.9,6.93-6.22,8.27-7.63,1.48-1.48,4.52-3.04,6.72-3.04,.49,0,1.2,.07,1.84,.49,1.41,.92,5.51,13.01,6.01,17.04,0,.49,.07,1.06-.07,1.55Z"/><path d="M98.83,46.22c-.42,.35-.99,.57-1.63,.57-1.77,0-3.89-2.97-4.59-4.45-.42-.92-.71-2.4-.92-4.03-.71-6.08-.85-17.81,0-19.44,.57-1.13,2.19-1.27,3.04-1.27,1.41,0,4.38,.49,5.37,2.62,.35,.78,.57,1.84,.71,2.97,.78,6.15,0,21.56-1.98,23.04Z"/><path d="M136.58,51.66c-1.7,2.19-13.57,7.49-17.04,8.27-.28,0-.57,.07-.92,.07-1.77,0-3.89-1.06-6.15-2.69-.35-.28-.92-1.41-1.13-2.9-.99-8.13-1.91-41.78-.35-48.07,.35-1.48,1.63-2.05,2.9-2.05,1.63,0,3.46,.99,4.59,2.62,.21,.35,.42,.99,.57,1.77,.71,5.58-.85,29.76,.49,40.72,.07,.57,.07,1.06,.21,1.56,3.82-1.06,9.76-3.04,11.45-3.68,.57-.21,1.06-.35,1.55-.35,1.41,0,4.1,.85,4.38,3.04,.07,.64-.14,1.2-.57,1.7Z"/><path d="M144.78,46.22c-.35,.35-.82,.57-1.35,.57-1.47,0-3.23-2.97-3.82-4.45-.35-.92-.59-2.4-.76-4.03-.59-6.08-.71-17.81,0-19.44,.47-1.13,1.82-1.27,2.53-1.27,1.18,0,3.65,.49,4.47,2.62,.29,.78,.47,1.84,.59,2.97,.65,6.15,0,21.56-1.65,23.04Z"/><path d="M196.14,34.56c-.85,1.13,.57,12.02-.64,13.93-.42,.78-1.27,1.06-2.05,1.06-1.77,0-4.59-1.91-5.51-2.62-.57-.35-1.06-1.41-1.2-2.69-.35-3.11-.21-9.75-.14-11.8-2.97-3.39-14.7-17.95-14.92-19.79-.21-1.98,1.98-2.47,3.18-2.47s3.53,.42,4.45,1.84c.57,.85,2.97,4.45,5.3,7.85,1.91,2.83,3.75,5.37,4.52,6.43l.14-.28c1.55-3.39,3.04-6.79,4.67-10.18,1.48-3.25,3.18-6.43,4.31-7.56,1.13-1.06,2.54-1.56,3.89-1.56,1.77,0,3.75,.92,3.89,3.04,.21,2.97-7.78,21.98-9.9,24.81Z"/><path d="M231.18,43.75c-.66,.91-2.17,1.62-3.34,1.62-.51,0-1.21-.1-1.77-.71-.66-.76-2.48-9.25-2.93-10.92-3.99,1.01-9.66,1.82-11.33,2.07-.91,1.67-1.47,3.54-2.12,5.31-.46,1.16-.66,1.72-2.22,1.72-1.21,0-3.03-.56-3.24-2.23-.56-4.4,10.97-25.03,12.09-25.64,1.42-.76,3.19-1.16,4.6-1.16,1.21,0,2.28,.46,2.63,1.16,2.53,4.8,7.18,21.85,7.79,26.8,.15,.96,.05,1.67-.15,1.97Zm-11.58-23.92c-.25,0-3.19,5.61-5.46,10.62,3.49-1.11,6.12-1.62,7.48-1.82-.56-2.53-1.72-8.85-2.02-8.8Z"/><path d="M266.95,27.99c-.28,3.18-.57,7.21-.78,11.95,0,2.19-3.61,2.97-4.81,2.97-.49,0-1.27-.07-1.91-.49-1.41-.92-4.81-4.03-8.13-7.07-1.84-1.77-3.75-3.53-5.73-5.23,0,1.7,0,3.53,.07,5.37,.07,2.97,.07,5.94-.21,7.42-.21,.99-.92,1.84-2.19,1.84-2.55,0-5.02-3.11-5.23-4.95-.28-2.54,0-17.18,0-20.85,0-1.91,2.47-2.4,3.53-2.4,.49,0,1.27,.07,1.98,.57,.42,.28,1.63,1.34,2.97,2.62,3.96,3.68,7.85,7.42,11.88,10.96,.07-1.41,.28-2.76,.35-4.17,.28-3.53,.57-7.49,.99-8.27,.49-1.06,1.63-1.41,2.55-1.41,2.4,0,4.74,1.77,5.02,4.17,.14,2.12-.21,4.95-.35,7Z"/><path d="M317.5,37.56c-1.38,6.84-11.8,10.2-17.59,11.87-5.74,1.65-12.08,2.01-17.53-.43-5.42-2.43-9.56-7.99-9.11-14.08,.57-7.67,5.64-14.15,10.86-19.4,3.81-3.84,8.54-7.26,13.66-9.08,3.96-1.41,9.22-1.8,12.47,1.37,1.01,.98,1.78,2.46,1.29,3.78-.64,1.71-2.89,2.23-4.52,2.26-6.89,.13-13.26,3.54-17.91,8.5-3.01,3.2-5.39,7.19-6.98,11.28-1.52,3.89-1.35,8.81,3.55,9.71,3.91,.72,8.06,.24,11.85-.91,3.31-1,8.29-2.97,10-6.25,.43-.81,.47-1.9-.13-2.59-.43-.49-1.1-.69-1.74-.79-5.27-.82-10.97,4.1-15.98,1.24-.57-.32-1.1-.7-1.6-1.13-2.28-1.97,2.85-4.44,4.11-5.06,3.65-1.8,7.78-3.12,11.86-3.31,5.23-.24,11.15,3.15,12.98,8.19,.65,1.78,.76,3.38,.47,4.83Z"/><path d="M143.61,13.61c-.4,0-.8-.16-1.15-.5l-11.11-10.76s0,0,0,0c-.48-3.22,3.21-2.6,4.56-1.29l8.59,10.81c.59,1.16,.3,1.54-.89,1.74Z"/></g></g></svg>