<?xml version="1.0" encoding="UTF-8"?><svg id="Layer_2" xmlns="http://www.w3.org/2000/svg" xmlns:xlink="http://www.w3.org/1999/xlink" viewBox="0 0 200 200"><defs><style>.cls-1{fill:none;}.cls-2{fill:url(#linear-gradient);}.cls-3{fill:#fff;}</style><linearGradient id="linear-gradient" x1="-665.98" y1="1650.69" x2="-646.63" y2="1617" gradientTransform="translate(2456.56 5965.84) scale(3.59 -3.59)" gradientUnits="userSpaceOnUse"><stop offset="0" stop-color="#927be5"/><stop offset="1" stop-color="#512bd4"/></linearGradient></defs><g id="Layer_1-2"><g id="csharp_logo"><rect class="cls-1" width="200" height="200"/><g id="layer1"><g id="g16308"><path id="path8" class="cls-2" d="M27.96,70.29v59.42c0,7.35,3.92,14.15,10.29,17.82l51.46,29.71c6.37,3.68,14.21,3.68,20.58,0l51.46-29.71c6.37-3.68,10.29-10.47,10.29-17.82v-59.42c0-7.35-3.92-14.15-10.29-17.82l-51.46-29.71c-6.37-3.68-14.21-3.68-20.58,0l-51.46,29.71c-6.37,3.68-10.29,10.47-10.29,17.82h0Z"/><path id="path12" class="cls-3" d="M63.98,89.71v20.58c0,1.36,.54,2.68,1.51,3.64,.97,.97,2.27,1.51,3.64,1.51s2.68-.54,3.64-1.51c.97-.97,1.51-2.27,1.51-3.64s.54-2.68,1.51-3.64c.97-.97,2.27-1.51,3.64-1.51s2.68,.54,3.64,1.51c.97,.97,1.51,2.27,1.51,3.64,0,4.1-1.63,8.02-4.52,10.91-2.9,2.9-6.82,4.52-10.91,4.52s-8.02-1.63-10.91-4.52c-2.9-2.9-4.52-6.82-4.52-10.91v-20.58c0-4.1,1.63-8.02,4.52-10.91,2.9-2.9,6.82-4.52,10.91-4.52s8.02,1.63,10.91,4.52c2.89,2.9,4.52,6.82,4.52,10.91,0,1.36-.54,2.68-1.51,3.64-.97,.97-2.27,1.51-3.64,1.51s-2.68-.54-3.64-1.51c-.97-.97-1.51-2.27-1.51-3.64s-.54-2.68-1.51-3.64c-.97-.97-2.27-1.51-3.64-1.51s-2.68,.54-3.64,1.51c-.97,.97-1.51,2.27-1.51,3.64Zm82.33,20.58c0,1.36-.54,2.68-1.51,3.64-.97,.97-2.28,1.51-3.64,1.51h-5.15v5.15c0,1.36-.54,2.68-1.51,3.64-.97,.96-2.27,1.51-3.64,1.51s-2.68-.54-3.64-1.51c-.96-.97-1.51-2.28-1.51-3.64v-5.15h-10.29v5.15c0,1.36-.54,2.68-1.51,3.64-.97,.96-2.27,1.51-3.64,1.51s-2.68-.54-3.64-1.51c-.97-.97-1.51-2.28-1.51-3.64v-5.15h-5.15c-1.36,0-2.68-.54-3.64-1.51-.97-.97-1.51-2.27-1.51-3.64s.54-2.68,1.51-3.64c.97-.97,2.27-1.51,3.64-1.51h5.15v-10.29h-5.15c-1.36,0-2.68-.54-3.64-1.51-.97-.97-1.51-2.27-1.51-3.64s.54-2.68,1.51-3.64c.97-.97,2.27-1.51,3.64-1.51h5.15v-5.15c0-1.36,.54-2.68,1.51-3.64,.97-.97,2.27-1.51,3.64-1.51s2.68,.54,3.64,1.51c.97,.97,1.51,2.27,1.51,3.64v5.15h10.29v-5.15c0-1.36,.54-2.68,1.51-3.64,.97-.97,2.27-1.51,3.64-1.51s2.68,.54,3.64,1.51c.96,.97,1.51,2.27,1.51,3.64v5.15h5.15c1.36,0,2.68,.54,3.64,1.51,.96,.97,1.51,2.27,1.51,3.64s-.54,2.68-1.51,3.64c-.97,.97-2.28,1.51-3.64,1.51h-5.15v10.29h5.15c1.36,0,2.68,.54,3.64,1.51,.96,.97,1.51,2.27,1.51,3.64Zm-20.58-15.44h-10.29v10.29h10.29v-10.29Z"/></g></g></g></g></svg>