<?xml version="1.0" encoding="UTF-8"?>
<svg id="Layer_2" data-name="Layer 2" xmlns="http://www.w3.org/2000/svg" viewBox="0 0 128 128">
  <defs>
    <style>
      .cls-1 {
        fill: #7e96bc;
      }

      .cls-1, .cls-2 {
        stroke-width: 0px;
      }

      .cls-2 {
        fill: #fff;
      }
    </style>
  </defs>
  <g id="Layer_1-2" data-name="Layer 1">
    <circle class="cls-1" cx="64" cy="64" r="64"/>
    <g>
      <path class="cls-2" d="M77,93.01c-2.18,2.8-17.37,9.59-21.81,10.59-.36,0-.73.09-1.18.09-2.27,0-4.98-1.36-7.87-3.44-.45-.36-1.18-1.8-1.45-3.71-1.27-10.41-2.44-53.48-.45-61.53.45-1.89,2.09-2.62,3.71-2.62,2.09,0,4.43,1.27,5.88,3.35.27.45.54,1.27.73,2.27.91,7.14-1.09,38.09.63,52.12.09.73.09,1.36.27,2,4.89-1.36,12.49-3.89,14.66-4.71.73-.27,1.36-.45,1.98-.45,1.8,0,5.25,1.09,5.61,3.89.09.82-.18,1.54-.73,2.18h.03Z"/>
      <path class="cls-2" d="M87.5,86.04c-.45.45-1.05.73-1.73.73-1.88,0-4.13-3.8-4.89-5.7-.45-1.18-.76-3.07-.97-5.16-.76-7.78-.91-22.8,0-24.88.6-1.45,2.33-1.63,3.24-1.63,1.51,0,4.67.63,5.72,3.35.37,1,.6,2.36.76,3.8.83,7.87,0,27.6-2.11,29.49h-.01Z"/>
      <path class="cls-2" d="M86,44.3c-.51,0-1.02-.2-1.47-.64l-14.22-13.77h0c-.61-4.12,4.11-3.33,5.84-1.65l11,13.84c.76,1.48.38,1.97-1.14,2.23Z"/>
    </g>
  </g>
</svg>