<?xml version="1.0" encoding="UTF-8"?><svg id="Layer_2" xmlns="http://www.w3.org/2000/svg" viewBox="0 0 200 200"><defs><style>.cls-1{fill:none;}</style></defs><g id="Layer_1-2"><g id="github_logo"><rect class="cls-1" width="200" height="200"/><path d="M83.97,23.3c-21.25,4.74-38.68,16.52-50.66,34.36-20.98,31.43-16.79,73.59,9.97,100.49,8.01,8.08,20.21,15.89,29.41,18.89,3.41,1.11,3.83,1.11,5.37,.07,1.67-1.11,1.74-1.39,1.74-9.41v-8.22l-6.13,.35c-7.18,.35-12.75-.91-16.1-3.76-1.18-.98-3.48-4.32-5.09-7.39-2.65-5.16-4.6-7.53-10.03-12.33-1.81-1.6-1.88-1.67-.63-2.58,3-2.23,9.06-.07,12.89,4.53,6.69,8.15,9.27,10.31,13.1,11.15,3.41,.7,6.55,.42,11.29-.98,.63-.21,1.46-1.67,1.88-3.34,.42-1.6,1.53-4.04,2.44-5.37l1.67-2.44-5.64-1.11c-11.85-2.44-19.16-6.69-23.97-13.94-4.46-6.69-5.92-12.47-5.99-23.28,0-10.17,1.11-14.36,5.51-20.07,1.95-2.51,2.16-3.28,1.6-4.74-1.05-2.51-.77-13.1,.35-16.31,.91-2.37,1.39-2.79,3.28-3,3.14-.35,8.99,1.67,14.91,5.02l5.09,2.93,4.46-1.05c6.34-1.46,25.37-1.39,31.08,0l4.32,1.11,4.04-2.44c5.37-3.21,12.2-5.71,15.61-5.71,2.72,0,2.72,.07,3.83,3.62,1.18,4.11,1.39,11.57,.35,15.12-.56,2.09-.42,2.72,1.11,4.74,7.6,10.03,8.43,26.69,2.02,40.35-4.32,8.99-13.45,15.26-25.71,17.56l-5.85,1.11,2.16,3.83,2.23,3.9,.21,15.54,.28,15.54,1.74,1.11c1.6,1.05,1.95,1.05,5.3-.14,5.57-1.88,15.12-7.04,20.35-11.01,31.08-23.28,41.12-65.02,23.9-99.72-10.1-20.42-29.2-36.1-51.08-41.95-9.55-2.51-27.53-3.07-36.59-1.05Z"/></g></g></svg>